<svg width="512" height="512" viewBox="0 0 512 512" role="img" xmlns="http://www.w3.org/2000/svg">
  <rect width="512" height="512" fill="#111111" rx="90"/>
  <circle cx="256" cy="256" r="210" fill="none" stroke="#C9A84C" stroke-width="14"/>
  <circle cx="256" cy="256" r="192" fill="none" stroke="#C9A84C" stroke-width="3"/>
  <g transform="translate(256,256)" fill="#C9A84C">
    <circle cx="0" cy="-105" r="21" fill="none" stroke="#C9A84C" stroke-width="10"/>
    <rect x="-60" y="-117" width="120" height="14" rx="7"/>
    <rect x="-7" y="-84" width="14" height="195" rx="7"/>
    <ellipse cx="0" cy="111" rx="56" ry="17" fill="none" stroke="#C9A84C" stroke-width="10"/>
    <path d="M-56,111 Q-82,90 -82,60 Q-82,22 -56,8" fill="none" stroke="#C9A84C" stroke-width="10" stroke-linecap="round"/>
    <path d="M56,111 Q82,90 82,60 Q82,22 56,8" fill="none" stroke="#C9A84C" stroke-width="10" stroke-linecap="round"/>
    <circle cx="-82" cy="60" r="14"/>
    <circle cx="82" cy="60" r="14"/>
    <path d="M-56,111 L-41,96 L-26,111" fill="none" stroke="#C9A84C" stroke-width="9" stroke-linecap="round" stroke-linejoin="round"/>
    <path d="M56,111 L41,96 L26,111" fill="none" stroke="#C9A84C" stroke-width="9" stroke-linecap="round" stroke-linejoin="round"/>
  </g>
  <text x="256" y="468" text-anchor="middle" font-family="Georgia,serif" font-size="28" font-weight="700" letter-spacing="6" fill="#C9A84C">ARCA DE ADÁN</text>
</svg>
